<svg width="300" height="300" xmlns="http://www.w3.org/2000/svg" version="1.1"  xmlns:xlink="http://www.w3.org/1999/xlink" >
<symbol id="ohmc" width="300" height="300">
  <circle cx="150" cy="150" r="120" fill="#00F2FD" />
  <path d="M 150 270 L 150 150 270 150 q 0 110 -120 120" fill="#F3FF00" />
  <path d="M 150 270 L 150 150 30 150 q 0 110 120 120"   fill="#00FF27" />
  <circle cx="150" cy="150" r="60" fill="red" />
  <polyline points="90,150 150,150 150,210 150,150 210,150" style="fill:none;stroke-width:2;stroke:black" />
  <line x1="65" y1="230" x2="100" y2="200" style="stroke:rgb(0,0,0);stroke-width:2" />
  <line x1="225" y1="230" x2="195" y2="200" style="stroke:rgb(0,0,0);stroke-width:2" />
  <g font-size="40" font-family="sans-serif" fill="black" stroke="none" text-anchor="middle">
    <text x="150" y="135">V</text><text x="125" y="190">R</text><text x="170" y="190">I</text><text x="150" y="80">R  I</text>
    <text x="65" y="210">V</text><text x="100" y="250">I</text><text x="230" y="210">V</text><text x="190" y="250">R</text>
  </g>
  </symbol>
<use xlink:href="#ohmc"/>
</svg>